/* XPM */
static char *result[] = {
/* columns rows colors chars-per-pixel */
"64 64 18 1 ",
"  c #141B1B",
". c #46402E",
"X c #47412E",
"o c #47412F",
"O c #56634D",
"+ c #57644E",
"@ c #58654F",
"# c #58664E",
"$ c #59664E",
"% c #59674E",
"& c #59674F",
"* c #5F7160",
"= c #B8DCE5",
"- c #C8CBC9",
"; c #D3D4D4",
": c #E2E3E3",
"> c #F2EAF1",
", c white",
/* pixels */
"**>>>>>>>>>>>>>>>>>>>>>>>>>>>>>>>>>>>>>>>>>>>>>>>>>>>>>>>>>>>>>>",
"**>>>>>>>>>>*,,;;;                            ;;;,,>>>>>>>>>>>>>",
"*>>>>>>>>>>>>;;   ::,,,,,,,,,,,,,,,,,,,,,,,,::   ;;>>>>>>>>>>>>>",
">>>>>>>>>>>>>;;   ::,,,,,,,,,,,,,,,,,,,,,,,,::   ;;>>>>>>>>>>>>>",
">>>>>>>>>>>>>  :::,,,,,,,,,,,,,,,,,,,,,,,,,,,,:::  >>>>>>>>>>>>>",
">>>>>>>>>>>>>  :::,,,,,,,,,,,,,,,,,,,,,,,,,,,,:::  >>>>>>>>>>>>>",
">>>>>>>>>>>>>  ,,,,,,,,,,,,,,,,,,,,,,,,,,,,,,,,,,  >>>>>>>>>>>>>",
">>>>>>>>>>>>>  ,,,,,,,,,,,,,,,,,,,,,,,,,,,,,,,,,,  >>>>>>>>>>>>>",
">>>>>>>>>>>>>  ,,,,,,,,,,,,,,,,,,,,,,,,,,,,,,,,,,  >>>>>>>>>>>>>",
">>>>>>>>>>>>>  ,,,,,,,,,,,,,,,,,,,,,,,,,,,,,,,>>>  >>>>>>>>>>>>>",
">>>>>>>>>>>>>  >>>,,,,,,,,,,,,,,,,,,,,,,,,,,,,>>>  >>>>>>>>>>>>>",
">>>>>>>>>>>>>  >>>,,,,,,,,,,,,,,,,,,,,,,,,,,,,>>>  >>>>>>>>>>>>>",
">>>>>>>>>>>>>  >>>,,,,,,,,,,,,,,,,,,,,,,,,,,>>>>>  >>>>>>>>>>>>>",
">>>>>>>>>>>>>  ===>>,,,,,,,,,,,,,,,,,,,,,,>>>>>>>  >>>>>>>>>>>>>",
">>>>>>>>>>>>>  ===>>,,,,,,,,,,,,,,,,,,,,,,>>>>>>>  >>>>>>>>>>>>>",
">>>>>>>>>>>>>  =====>>>>>>>>>>>>>>>>>>>>>>>>>>===  >>>>>>>>>>>>>",
">>>>>>>>>>>>>  ===============>>>>>>>>>>>>>>=====  >>>>>>>>>>>>>",
">>>>>>>>>>>>>  ===============>>>>>>>>>>>>>>=====  >>>>>>>>>>>>>",
">>>>>>>****>>  ...=======OO===================+++  >>>>>>>>>>>>>",
">>>>>>>****>>  ........................=====..ooo  >>>>>>>>>>>>>",
">>>>>>>>>>>>>  ........................=====..ooo  >>>>>>>>>>>>>",
">>>>>>>>>>>>>,,   .......,,,,,..............XX   ,,>>>>>>>>>>>>>",
">>>>>>>>>>>>>,,   OO...OO,,,,,.........OOO..@@   ,,>>>>>>>>>>>>>",
">>>>>>>>>>>>>,,   OO...OO,,,,,.........OOO..@@   ,,>>>>>>>>>>>>>",
">>>>>>>>>>>>>,,   OO...OOOOOOOOOOOOOOOOOOOXX$$   ,,>>>>>>>>>>>>>",
">>>>>>>>>>>>>,,   OO...OOOOOOOOOOOOOOOOOOOXX&&   ,,>>>>>>>>>>>>>",
">>>>>>>>>>>>>,,   OO...OOOOOOOOOOOOOOOOOOOXX&&   ,,>>>>>>>>>>>>>",
">>>>>>>>>>>>>,,   OO...OOOOOOOOOOOOOOOOOOOXX&&   ,,>>>>>>>>>>>>>",
">>>>>>>>>>>>>,,   OO...OOOOOOOOOOOOOOOOOOOoo&&   ,,>>>>>>>>>>>>>",
">>>>>>>>>>>>>,,   OO...OOOOOOOOOOOOOOOOOOOoo&&   ,,>>>>>>>>>>>>>",
">>>>>>>>>>>>>,,   OO...OOOOOOOOOOOOOOOOOOOoo&&   ,,>>>>>>>>>>>>>",
">>>>>>>>>>>>>--   OO...OOOOOOOOOOOOOOOOOOOXX&&   ,,>>>>>>>>>>>>>",
">>>>>>>>>>>>>--   OO...OOOOOOOOOOOOOOOOOOOXX&&   ,,>>>>>>>>>>>>>",
">>>>>>>>>>>>>  ;;;OO...OOOOOOOOOOOOOOOOOOOXX%%===  >>>>>>>>>>>>>",
">>>>>>>>>>>>>  ,,,OO...OOOOOOOOOOOOOOOOOOO..##===  >>>>>>>>>>>>>",
">>>>>>>>>>>>>  ,,,OO...OOOOOOOOOOOOOOOOOOO..##===  >>>>>>>>>>>>>",
">>>>>>>>>>>>>  ,,,OO...OOOOOOOOOOOOOOOOOOO..OO===  >>>>>>>>>>>>>",
">>>>>>>>>>>>>  ,,,OO...OOOOOOOOOOOOOOOOOOO..++===  >>>>>>>>>>>>>",
">>>>>>>>>>>>>  ,,,OO...OOOOOOOOOOOOOOOOOOO..++===  >>>>>>>>>>>>>",
">>>>>>>>>>>>>  ,,,,,,,,OOOOOOOOOOOOOOOOOOO..OO===  >>>>>>>>>>>>>",
">>>>>>>>>>>>*  >>>,,,,,,,OOOOOOOOOOOOOOOOO..=====  >>>>>>>>>>>>>",
">>>>>>>>>>>>*  >>>,,,,,,,OOOOOOOOOOOOOOOOO..=====  >>>>>>>>>>>>>",
">>>>>>>>>>>>>  >>>>>,,,,,,,OOOOOOOOOO,,,,,,,>>===  >>>>>>>>>>>>>",
">>>>>>>>>>>>>  ===>>>>>>>>>,,,,,,,,,,>>>>>>>=====  >>>>>>>>>>>>>",
">>>>>>>>>>>>>  ===>>>>>>>>>,,,,,,,,,,>>>>>>>=====  >>>>>>>>>>>>>",
">>>>>>>>>>>>>  OOO=========OOOOOOOOOO=========OOO  >>>>>>>>>>>>>",
">>>>>>>>>>>>>  OOOOOOOOOOOOOOOOOOOOOOOOOOOOOOOOOO  >>>>>>>>>>>>>",
">>>>>>>>>>>>>  OOOOOOOOOOOOOOOOOOOOOOOOOOOOOOOOOO  >>>>>>>>>>>>>",
">>>>>>>>>>>>>,,OOOOOOOOOOOOOOOOOOOOOOOOOOOOOOOOOO,,>>>>>>>>>>>>>",
">>>>>>>>>>>>>>>>>>>>>>>>>>>>>>>>>>>>>>>>>>>>>>>>>>>*********>>>>",
">>>>>>>>>>>>>>>>>>>>>>>>>>>>>>>>>>>>>>>>>>>>>>>>************>>>>",
">>>>>>>>>>>>>>>>>>>>>>>>>>>>>>>>>>>>>>>>>>>>>>>>*****>>>**>>>>>>",
">>>>>>>>>>>>>>>>>>>>>>>>>>>>>>>>>>>>>>>>>>>>>>>>>>>>>>>>>>>>>>>>",
">>>>>>>>>>>>>>>>>>>>>>>>>>>>>>>>>>>>>>>>>>>>>>>>>>>>>>>>>>>>>>>>",
">>>>>>>>>>>>>>>>>>>>>>>>>>>>>>>>>>>>>>>>>>>>>>>>>>>>>>>>>>>>>>>>",
">>>>>>>>>>>>>>>>>>>>>>>>>>>>>>>>>>>>>>>>>>>>>>>>>>>>>>>>>>>>>>>>",
">>>>>>>>>>>>>>>>>>>>>>>>>>>>>>>>>>>>>>>>>>>>>>>>>>>>>>>>>>>>>>>>",
">>>>>>>>>>>>>>>>>>>>>>>>>>>>>>>>>>>>>>>>>>>>>>>>>>>>>>>>>>>>>>>>",
">>>>>>>>>>>>>>>>>>>>>>>>>>>>>>>>>>>>>>>>>>>>>>>>>>>>>>>>>>>>>>>>",
">>>>>>>>>>>>>>>>>>>>>>>>>>>>>>>>>>>>>>>>>>>>>>>>>>>>>>>>>>>>>>>>",
">>>>>>>>>>>>>>>>>>>>>>>>>>>>>>>>>>>>>>>>>>>>>>>>>>>>>>>>>>>>>>>>",
">>>>>>>>>>>>>>>>>>>>>>>>>>>>>>>>>>>>>>>>>>>>>>>>>>>>>>>>>>>>>>>>",
">>>>>>>>>>>>>>>>>>**>>>>>>>>>>>>>>>>>>>>>>>>>>>>>>>>>>>>>>>>>>>*",
">>>>>>>>>>>>>>>>>***>>>>>>>>>>>>>>>>>>>>>>>>>>>>>>>>>>>>>>>>>>>*"
};
