/* XPM */
static char *result[] = {
/* columns rows colors chars-per-pixel */
"64 64 7 1 ",
"  c #141B1B",
". c #5F7160",
"X c #E66A3A",
"o c #965340",
"O c #A3754E",
"+ c #F38C4C",
"@ c white",
/* pixels */
"@@@@@@@@@@@@@@@@oooooooooooooooooooooooooooooooo@@@@@@@@@@@@@@@@",
"@@@..@@@@@@@@@@@oooooooooooooooooooooooooooooooo@@@@@@@@@@@@@@@@",
"@.....@@@@@@@@@@oooooooooooooooooooooooooooooooo@@@@@@@@@@@@@@@@",
"@.....@@@@@@@@@@oooooooooooooooooooooooooooooooo@@@@@@@@@@@@@@..",
"@@@@@@@@oooooooo++++XXXX++++++++++++++++XXXX++++oooooooo@@@@@@..",
"@@@@@@@@oooooooo++++XXXX++++++++++++++++XXXX++++oooooooo@@@@@@@@",
"@@@@@@@@oooooooo++++XXXX++++++++++++++++XXXX++++oooooooo@@@@@@@@",
"@@@@@@@@oooooooo++++XXXX++++++++++++++++XXXX++++oooooooo@@@@@@@@",
"@@@@oooo++++++++++++XXXX++++++++++++++++XXXX++++++++++++oooo@@@@",
"@@@@oooo++++++++++++XXXX++++++++++++++++XXXX++++++++++++oooo@@@@",
"@@@@oooo++++++++++++XXXX++++++++++++++++XXXX++++++++++++oooo@@@@",
"@@@@oooo++++++++++++XXXX++++++++++++++++XXXX++++++++++++oooo@@@@",
"oooo++++++++++++XXXXOOOOXXXXXXXXXXXXXXXXOOOOXXXX++++++++++++oooo",
"oooo++++++++++++XXXXOOOOXXXXXXXXXXXXXXXXOOOOXXXX++++++++++++oooo",
"oooo++++++++++++XXXXOOOOXXXXXXXXXXXXXXXXOOOOXXXX++++++++++++oooo",
"oooo++++++++++++XXXXOOOOXXXXXXXXXXXXXXXXOOOOXXXX++++++++++++oooo",
"oooo++++XXXXXXXXXXXXOOOOXXXXXXXXXXXXXXXXOOOOXXXXXXXXXXXX++++oooo",
"oooo++++XXXXXXXXXXXXOOOOXXXXXXXXXXXXXXXXOOOOXXXXXXXXXXXX++++oooo",
"oooo++++XXXXXXXXXXXXOOOOXXXXXXXXXXXXXXXXOOOOXXXXXXXXXXXX++++oooo",
"oooo++++XXXXXXXXXXXXOOOOXXXXXXXXXXXXXXXXOOOOXXXXXXXXXXXX++++oooo",
"ooooXXXXXXXXXXXX                                XXXXXXXXXXXXoooo",
"ooooXXXXXXXXXXXX                                XXXXXXXXXXXXoooo",
"ooooXXXXXXXXXXXX                                XXXXXXXXXXXXoooo",
"ooooXXXXXXXXXXXX                                XXXXXXXXXXXXoooo",
"ooooXXXXXXXX    oooooooooooooooooooooooooooooooo    XXXXXXXXoooo",
"ooooXXXXXXXX    oooooooooooooooooooooooooooooooo    XXXXXXXXoooo",
"ooooXXXXXXXX    oooooooooooooooooooooooooooooooo    XXXXXXXXoooo",
"ooooXXXXXXXX    oooooooooooooooooooooooooooooooo    XXXXXXXXoooo",
"ooooXXXXXXXX    ooooOOOOooooOOOOOOOOooooOOOOoooo    XXXXXXXXoooo",
"ooooXXXXXXXX    ooooOOOOooooOOOOOOOOooooOOOOoooo    XXXXXXXXoooo",
"ooooXXXXXXXX    ooooOOOOooooOOOOOOOOooooOOOOoooo    XXXXXXXXoooo",
"ooooXXXXXXXX    ooooOOOOooooOOOOOOOOooooOOOOoooo    XXXXXXXXoooo",
"ooooXXXXXXXX    OOOOOOOOooooOOOOOOOOooooOOOOOOOO    XXXXXXXXoooo",
"ooooXXXXXXXX    OOOOOOOOooooOOOOOOOOooooOOOOOOOO    XXXXXXXXoooo",
"ooooXXXXXXXX    OOOOOOOOooooOOOOOOOOooooOOOOOOOO    XXXXXXXXoooo",
"ooooXXXXXXXX    OOOOOOOOooooOOOOOOOOooooOOOOOOOO    XXXXXXXXoooo",
"ooooXXXXXXXX    OOOOOOOOooooOOOOOOOOooooOOOOOOOO    XXXXXXXXoooo",
"ooooXXXXXXXX    OOOOOOOOooooOOOOOOOOooooOOOOOOOO    XXXXXXXXoooo",
"ooooXXXXXXXX    OOOOOOOOooooOOOOOOOOooooOOOOOOOO    XXXXXXXXoooo",
"ooooXXXXXXXX    OOOOOOOOooooOOOOOOOOooooOOOOOOOO    XXXXXXXXoooo",
"ooooXXXXXXXX    OOOOOOOOooooOOOOOOOOooooOOOOOOOO    XXXXXXXXoooo",
"ooooXXXXXXXX    OOOOOOOOooooOOOOOOOOooooOOOOOOOO    XXXXXXXXoooo",
"ooooXXXXXXXX    OOOOOOOOooooOOOOOOOOooooOOOOOOOO    XXXXXXXXoooo",
"ooooXXXXXXXX    OOOOOOOOooooOOOOOOOOooooOOOOOOOO    XXXXXXXXoooo",
"ooooXXXXXXXX    OOOOOOOOooooOOOOOOOOooooOOOOOOOO    XXXXXXXXoooo",
"ooooXXXXXXXX    OOOOOOOOooooOOOOOOOOooooOOOOOOOO    XXXXXXXXoooo",
"ooooXXXXXXXX    OOOOOOOOooooOOOOOOOOooooOOOOOOOO    XXXXXXXXoooo",
"ooooXXXXXXXX    OOOOOOOOooooOOOOOOOOooooOOOOOOOO    XXXXXXXXoooo",
"ooooXXXXXXXX    OOOOOOOOooooOOOOOOOOooooOOOOOOOO    XXXXXXXXoooo",
"ooooXXXXXXXX    OOOOOOOOooooOOOOOOOOooooOOOOOOOO    XXXXXXXXoooo",
"ooooXXXXXXXX    OOOOOOOOooooOOOOOOOOooooOOOOOOOO    XXXXXXXXoooo",
"ooooXXXXXXXX    OOOOOOOOooooOOOOOOOOooooOOOOOOOO    XXXXXXXXoooo",
"ooooOOOOOOOO    OOOOOOOOooooOOOOOOOOooooOOOOOOOO    OOOOOOOOoooo",
"ooooOOOOOOOO    OOOOOOOOooooOOOOOOOOooooOOOOOOOO    OOOOOOOOoooo",
"ooooOOOOOOOO    OOOOOOOOooooOOOOOOOOooooOOOOOOOO    OOOOOOOOoooo",
"ooooOOOOOOOO    OOOOOOOOooooOOOOOOOOooooOOOOOOOO    OOOOOOOOoooo",
"ooooXXXXXXXX    OOOOOOOOooooOOOOOOOOooooOOOOOOOO    XXXXXXXXoooo",
"ooooXXXXXXXX    OOOOOOOOooooOOOOOOOOooooOOOOOOOO    XXXXXXXXoooo",
"ooooXXXXXXXX    OOOOOOOOooooOOOOOOOOooooOOOOOOOO    XXXXXXXXoooo",
"ooooXXXXXXXX    OOOOOOOOooooOOOOOOOOooooOOOOOOOO    XXXXXXXXoooo",
"ooooXXXXXXXX@@@@@@@@@@@@@@@@@@@@@@@@@@@@@@@@@@@@@@@@XXXXXXXXoooo",
"ooooXXXXXXXX@@@@@@@@@@@@@@@@@@@@@@@@@@@@@@@@@@@@@@@@XXXXXXXXoooo",
"ooooXXXXXXXX@@@@@@@@@@@@@@@@@@@@@@@@@@@@@@@@@@@@@@@@XXXXXXXXoooo",
"ooooXXXXXXXX@@@@@@@@@@@@@@@@@@@@@@@@@@@@@@@@@@@@@@@@XXXXXXXXoooo"
};
