/* XPM */
static char *result[] = {
/* columns rows colors chars-per-pixel */
"15 20 17 1 ",
"  c #74C857",
". c #7EC859",
"X c #E5B47E",
"o c #89C85D",
"O c #9DC863",
"+ c #A9C167",
"@ c #B8C86C",
"# c #C4C870",
"$ c #CFC874",
"% c #D3C976",
"& c #DDC87A",
"* c #E5C97C",
"= c #E8C97E",
"- c #EDB281",
"; c #F1B183",
": c #F6C284",
"> c #F8C984",
/* pixels */
"       > >>>;> ",
"               ",
"               ",
"               ",
"               ",
"               ",
"               ",
";             &",
"              >",
"             X:",
";            +.",
">;             ",
">              ",
"               ",
"               ",
"             o@",
"             o@",
"             O=",
"             ;%",
";          #$*-"
};
