/* XPM */
static char *result[] = {
/* columns rows colors chars-per-pixel */
"64 64 9 1 ",
"  c #141B1B",
". c #2D697B",
"X c #5F7160",
"o c #D14B34",
"O c #EF914F",
"+ c #548789",
"@ c #79B8CE",
"# c #E3F1F5",
"$ c white",
/* pixels */
"$XXXX$$$$$$$$$$$$$$$$$$$$$$$$$$$$$$$$$$$$$$$$$$$$$$$$$$$$$$$$$XX",
"$XXX$$$$$$$$$$$$$$$$$$$$$$$$$$$$$$$$$$$$$$$$$$$$$$$$$$$$$$$$$$XX",
"$$$$$$$$$$$$$$$$$$$$$$$$$$$$$$$$$$$$$$$$$$$$$$$$$$$$$$$$$$$$$$$X",
"$$$$$$$$$$$$$$$$$$$$$$$$$$$$$$$$$$$$$$$$$$$$$$$$$$$$$$$$$$$$$$$X",
"$$$$$$$$$$$$                                        $$$$$$$$$$$$",
"$$$$$$$$$$$$                                        $$XXXXX$$$$$",
"$$$$$$$$$$$$                                        $$XXXXX$$$$$",
"$$$$$$$$$$$$                                        $$$$$XX$$$$$",
"$$$$$$$$    ++++++++++++++++++++++++++++++++++++++++    $$$$$$$$",
"$$$XXXX$    ++++++++++++++++++++++++++++++++++++++++    $$$$$$$$",
"$$$XXXXX    ++++++++++++++++++++++++++++++++++++++++    $$$$$$$$",
"$$$$$$XX    ++++++++++++++++++++++++++++++++++++++++    $$$$$$$$",
"$$$$    ++++++++++++@@@@@@@@@@@@@@@@@@@@@@@@++++++++++++    $$$$",
"$$$$    ++++++++++++@@@@@@@@@@@@@@@@@@@@@@@@++++++++++++    $$$$",
"$$$$    ++++++++++++@@@@@@@@@@@@@@@@@@@@@@@@++++++++++++    $$$$",
"$$$$    ++++++++++++@@@@@@@@@@@@@@@@@@@@@@@@++++++++++++    $$$$",
"    ....++++++++@@@@@@@@@@@@@@@@@@@@@@@@@@@@@@@@++++++++....    ",
"    ....++++++++@@@@@@@@@@@@@@@@@@@@@@@@@@@@@@@@++++++++....    ",
"    ....++++++++@@@@@@@@@@@@@@@@@@@@@@@@@@@@@@@@++++++++....    ",
"    ....++++++++@@@@@@@@@@@@@@@@@@@@@@@@@@@@@@@@++++++++....    ",
"    ....++++########################################++++....    ",
"    ....++++########################################++++....    ",
"    ....++++########################################++++....    ",
"    ....++++########################################++++....    ",
"    ....################################################....    ",
"    ....################################################....    ",
"    ....################################################....    ",
"    ....################################################....    ",
"    ....############oooooooooooooooooooooooo############....    ",
"    ....############oooooooooooooooooooooooo############....    ",
"    ....############oooooooooooooooooooooooo############....    ",
"    ....############oooooooooooooooooooooooo############....    ",
"    ....########oooo        oooooooo        oooo########....    ",
"    ....########oooo        oooooooo        oooo########....    ",
"    ....########oooo        oooooooo        oooo########....    ",
"    ....########oooo        oooooooo        oooo########....    ",
"    ....########ooooOOOOOOOOOOOOOOOOOOOOOOOOoooo########....    ",
"    ....########ooooOOOOOOOOOOOOOOOOOOOOOOOOoooo########....    ",
"    ....########ooooOOOOOOOOOOOOOOOOOOOOOOOOoooo########....    ",
"    ....########ooooOOOOOOOOOOOOOOOOOOOOOOOOoooo########....    ",
"$$$$    ############OOOOOOOOOOOOOOOOOOOOOOOO############    $$$$",
"$$$$    ############OOOOOOOOOOOOOOOOOOOOOOOO############    $$$$",
"$$$$    ############OOOOOOOOOOOOOOOOOOOOOOOO############    $$$$",
"$$$$    ############OOOOOOOOOOOOOOOOOOOOOOOO############    $$$$",
"$$$$$$$$    ....################################....    $$$$$$$$",
"$$$$$$$$    ....################################....    $$$$$$$$",
"$$$$$$$$    ....################################....    $$$$$$$$",
"$$$$$$$$    ....################################....    $$$$$$$$",
"$$$$    ................####........####................    $$$$",
"$$$$    ................####........####................    $$$$",
"$$$$    ................####........####................    $$$$",
"$$$$    ................####........####................    $$$$",
"$$$$    oooooooo################################oooooooo    $$$$",
"$$$$    oooooooo################################oooooooo    $$$$",
"$$$$    oooooooo################################oooooooo    $$$$",
"$$$$    oooooooo################################oooooooo    $$$$",
"$$$$    OOOOOOOO++++++++++++        ++++++++++++OOOOOOOO    $$$$",
"$$$$    OOOOOOOO++++++++++++        ++++++++++++OOOOOOOO    $$$$",
"$$$$    OOOOOOOO++++++++++++        ++++++++++++OOOOOOOO    $$$$",
"$$$$    OOOOOOOO++++++++++++        ++++++++++++OOOOOOOO    $$$$",
"$$$$$$$$        ............        ............        $$$$$$$$",
"$$$$$$$$        ............        ............        $$$$$$$$",
"$$$$$$$$        ............        ............        $$$$XXXX",
"$$$$$$$$        ............        ............        $$$$XXXX"
};
