/* XPM */
static char *result[] = {
/* columns rows colors chars-per-pixel */
"15 20 9 1 ",
"  c #412F2F",
". c #915841",
"X c #A0654D",
"o c #B56E4B",
"O c #E09669",
"+ c #F6C192",
"@ c #CFCCC5",
"# c #F1E6D6",
"$ c None",
/* pixels */
"$$$$$$$$$$$$$$$",
"$$$$$$$$$$$$$$$",
"$$$$$.....$$$$$",
"$$$$.oOooo.$$$$",
"$$$.oOooooo.$$$",
"$$.XoOoooOoX.$$",
"$$.XooOOOoXX.$$",
"$$.XXoooo....$$",
"$$.XXXXX.#.O$$$",
"$$.XXXXX.+ O$$$",
"$$$.XXX.+++O$$$",
"$$$$...oOOO$$$$",
"$$$$$o@@oo$$$$$",
"$$$$o@@@@@o$$$$",
"$$$$o@@o@Oo$$$$",
"$$$$o@@oO+o$$$$",
"$$$$$oOOoo$$$$$",
"$$$$$$ooo$$$$$$",
"$$$$$$$$$$$$$$$",
"$$$$$$$$$$$$$$$"
};
