/* XPM */
static char *result[] = {
/* columns rows colors chars-per-pixel */
"64 64 6 1 ",
"  c #141B1B",
". c #543C52",
"X c #5F7160",
"o c #BD7959",
"O c #D2B37D",
"+ c #F2EAF1",
/* pixels */
"XX++++++++++++++++++++++++++++++++++++++++++++++++++++++++++++++",
"XX++++++++++XXXXX++++++++++++++++++++++++++++++XX+++++++++++++++",
"X++++++++++++++++++++++++++++++++++++++++++++++XXX++++++++++++++",
"++++++++++++++++++++++++++++++++++++++++++++XXXXXX++++++++++++++",
"++++++++++++++++++++++++++++++++++++++++++++++++++++++++++++++++",
"++++++++++++++++++++++++++++++++++++++++++++++++++++++++++++++++",
"++++++++++++++++++++++++++++++++++++++++++++++++++++++++++++++++",
"++++++++++++++++++++++++++++++++++++++++++++++++++++++++++++++++",
"++++++++++++++++++++++++++++++++++++++++++++++++++++++++++++++++",
"++++++++++++++++++++++++++++++++++++++++++++++++++++++++++++++++",
"++++++++++++++++++++++++++++++++++++++++++++++++++++++++++++++++",
"++++++++++++++++++++++++++++++++++++++++++++++++++++++++++++++++",
"++++++++++++++++++++++++++++++++++++++++++++++++++++++++++++++++",
"++++++++++++++++++++++++++++++++++++++++++++++++++++++++++++++++",
"++++++++++++++++++++++++++++++++++++++++++++++++++++++++++++++++",
"++++++++++++++++++++++++++++++++++++++++++++++++++++++++++++++++",
"++++++++++++++++++++++++++++++++++++++++++++++++++++++++++++++++",
"++++++++++++++++++++++++++++++++++++++++++++++++++++++++++++++++",
"+++++++XXXX+++++++++++++++++++++++++++++++++++++++++++++++++++++",
"+++++++XXXX+++++++++++++++++++++++++++++++++++++++++++++++++++++",
"++++++++++++++++                ++++++++++++++++++++++++++++++++",
"++++++++++++++++                ++++++++++++++++++++++++++++++++",
"++++++++++++++++                ++++++++++++++++++++++++++++++++",
"+++++++++++     +++++++OOOOOOOOO             +++         +++++++",
"+++++++++++     +++++++OOOOOOOOO             +++         +++++++",
"+++++++++++     +++++++OOOOOOOOO             +++         +++++++",
"+++++++++++     +++++++OOOOOOOOO             +++         +++++++",
"+++++++    OOOOO++++OOOOOOOOOOOOoooo     OOOO   OOOOO    +++++++",
"+++++++    OOOOO++++OOOOOOOOOOOOoooo     OOOO   OOOOO    +++++++",
"+++++++    OOOOO++++OOOOOOOOOOOOoooo     OOOO   OOOOO    +++++++",
"+++++++    OOOOOoooo........ooooooooooooooooo...OOOOO    +++++++",
"+++++++    OOOOOoooo........ooooooooooooooooo...OOOOO    +++++++",
"+++++++    OOOOOoooo........ooooooooooooooooo...OOOOO    +++++++",
"+++++++    OOOOOoooo........OOOOooooooooooooooooooooo    +++++++",
"+++++++    OOOOOoooo........OOOOooooooooooooooooooooo    +++++++",
"+++++++    OOOOOoooo........OOOOooooooooooooooooooooo    +++++++",
"+++++++    OOOOOoooo........OOOOooooooooooooooooooooo    +++++++",
"+++++++    ooooooooooooOOOOOOOOOoooo                     +++++++",
"+++++++    ooooooooooooOOOOOOOOOoooo                     +++++++",
"+++++++    ooooooooooooOOOOOOOOOoooo                     +++++++",
"+++++++    ooooooooooooOOOOOOOOOoooo                     +++++++",
"+++++++++++     oooooooooooooooo    ++++++++++++++++++++++++++++",
"+++++++++++     oooooooooooooooo    ++++++++++++++++++++++++++++",
"+++++++++++     oooooooooooooooo    ++++++++++++++++++++++++++++",
"++++++++++++++++                ++++++++++++++++++++++++++++++++",
"++++++++++++++++                ++++++++++++++++++++++++++++++++",
"++++++++++++++++                ++++++++++++++++++++++++++++++++",
"++++++++++++++++++++++++++++++++++++++++++++++++++++++++++++++++",
"++++++++++++++++++++++++++++++++++++++++++++++++++++++++++++++++",
"+++++++++++++++++++++++++++++++++++++++++++++++++++XXXXXXXXX++++",
"++++++++++++++++++++++++++++++++++++++++++++++++XXXXXXXXXXXX++++",
"++++++++++++++++++++++++++++++++++++++++++++++++XXXXX+++XX++++++",
"++++++++++++++++++++++++++++++++++++++++++++++++++++++++++++++++",
"++++++++++++++++++++++++++++++++++++++++++++++++++++++++++++++++",
"++++++++++++++++++++++++++++++++++++++++++++++++++++++++++++++++",
"++++++++++++++++++++++++++++++++++++++++++++++++++++++++++++++++",
"++++++++++++++++++++++++++++++++++++++++++++++++++++++++++++++++",
"++++++++++++++++++++++++++++++++++++++++++++++++++++++++++++++++",
"++++++++++++++++++++++++++++++++++++++++++++++++++++++++++++++++",
"++++++++++++++++++++++++++++++++++++++++++++++++++++++++++++++++",
"++++++++++++++++++++++++++++++++++++++++++++++++++++++++++++++++",
"++++++++++++++++++++++++++++++++++++++++++++++++++++++++++++++++",
"++++++++++++++++++XX+++++++++++++++++++++++++++++++++++++++++++X",
"+++++++++++++++++XXX+++++++++++++++++++++++++++++++++++++++++++X"
};
